<mxfile host="app.diagrams.net" modified="2021-09-21T01:10:41.413Z" agent="5.0 (Windows NT 10.0; Win64; x64) AppleWebKit/537.36 (KHTML, like Gecko) Chrome/93.0.4577.82 Safari/537.36" etag="56sF5O0aWehpaCypULys" version="15.2.9" type="github">
  <diagram id="07fea595-8f29-1299-0266-81d95cde20df" name="Page-1">
    <mxGraphModel dx="1747" dy="-1225" grid="1" gridSize="10" guides="1" tooltips="1" connect="1" arrows="1" fold="1" page="1" pageScale="1" pageWidth="1169" pageHeight="827" background="none" math="0" shadow="0">
      <root>
        <mxCell id="0" />
        <mxCell id="1" parent="0" />
        <mxCell id="oZi61YfB-YG20l5aSopQ-657" value="" style="group" vertex="1" connectable="0" parent="1">
          <mxGeometry x="290" y="2567" width="640" height="655.33" as="geometry" />
        </mxCell>
        <mxCell id="644" value="&lt;span style=&quot;font-size: 30px&quot;&gt;&lt;b&gt;Inner City&lt;/b&gt;&lt;/span&gt;" style="shape=hexagon;perimeter=hexagonPerimeter2;whiteSpace=wrap;html=1;shadow=0;labelBackgroundColor=none;fontFamily=Helvetica;fontSize=23;align=center;strokeWidth=3;" parent="oZi61YfB-YG20l5aSopQ-657" vertex="1">
          <mxGeometry x="187.71330971659927" y="218.55388157894703" width="250.0733805668016" height="218.3327850877194" as="geometry" />
        </mxCell>
        <mxCell id="645" value="" style="triangle;whiteSpace=wrap;html=1;shadow=0;labelBackgroundColor=none;strokeColor=none;fillColor=#FFFFFF;fontFamily=Helvetica;fontSize=17;fontColor=#23445d;align=center;rotation=90;gradientColor=none;flipV=1;flipH=1;opacity=20;" parent="oZi61YfB-YG20l5aSopQ-657" vertex="1">
          <mxGeometry x="92.22115384615385" y="233.56633333333346" width="57.73846153846154" height="127.70533333333341" as="geometry" />
        </mxCell>
        <mxCell id="646" value="Sector 4" style="shape=hexagon;perimeter=hexagonPerimeter2;whiteSpace=wrap;html=1;shadow=0;labelBackgroundColor=none;strokeColor=#23445D;fillColor=#ffffff;gradientColor=none;fontFamily=Helvetica;fontSize=23;fontColor=#23445D;align=center;strokeWidth=3;" parent="oZi61YfB-YG20l5aSopQ-657" vertex="1">
          <mxGeometry x="187.71330971659927" width="250.0733805668016" height="218.3327850877194" as="geometry" />
        </mxCell>
        <mxCell id="647" value="Sector 3" style="shape=hexagon;perimeter=hexagonPerimeter2;whiteSpace=wrap;html=1;shadow=0;labelBackgroundColor=none;strokeColor=#23445D;fillColor=#FFFFFF;gradientColor=none;fontFamily=Helvetica;fontSize=23;fontColor=#23445d;align=center;strokeWidth=3;" parent="oZi61YfB-YG20l5aSopQ-657" vertex="1">
          <mxGeometry x="375.4266194331985" y="108.8292203947369" width="250.0733805668016" height="218.3327850877194" as="geometry" />
        </mxCell>
        <mxCell id="648" value="Sector 2" style="shape=hexagon;perimeter=hexagonPerimeter2;whiteSpace=wrap;html=1;shadow=0;labelBackgroundColor=none;strokeColor=#23445D;fillColor=#FFFFFF;gradientColor=none;fontFamily=Helvetica;fontSize=23;fontColor=#23445d;align=center;strokeWidth=3;" parent="oZi61YfB-YG20l5aSopQ-657" vertex="1">
          <mxGeometry x="375.4266194331985" y="327.3278278508773" width="250.0733805668016" height="218.3327850877194" as="geometry" />
        </mxCell>
        <mxCell id="649" value="&lt;font style=&quot;font-size: 23px&quot;&gt;Sector 1&lt;/font&gt;" style="shape=hexagon;perimeter=hexagonPerimeter2;whiteSpace=wrap;html=1;shadow=0;labelBackgroundColor=none;strokeColor=#23445D;fillColor=#FFFFFF;gradientColor=none;fontFamily=Helvetica;fontSize=23;fontColor=#23445d;align=center;strokeWidth=3;" parent="oZi61YfB-YG20l5aSopQ-657" vertex="1">
          <mxGeometry x="187.71330971659927" y="436.9972149122805" width="250.0733805668016" height="218.3327850877194" as="geometry" />
        </mxCell>
        <mxCell id="650" value="&lt;span style=&quot;background-color: rgb(255 , 255 , 255)&quot;&gt;Sector 6&lt;/span&gt;" style="shape=hexagon;perimeter=hexagonPerimeter2;whiteSpace=wrap;html=1;shadow=0;labelBackgroundColor=none;strokeColor=#23445D;fillColor=#FFFFFF;gradientColor=none;fontFamily=Helvetica;fontSize=23;fontColor=#23445d;align=center;strokeWidth=3;" parent="oZi61YfB-YG20l5aSopQ-657" vertex="1">
          <mxGeometry y="327.3278278508773" width="250.0733805668016" height="218.3327850877194" as="geometry" />
        </mxCell>
        <mxCell id="651" value="Sector 5" style="shape=hexagon;perimeter=hexagonPerimeter2;whiteSpace=wrap;html=1;shadow=0;labelBackgroundColor=none;strokeColor=#23445D;fillColor=#ffffff;gradientColor=none;fontFamily=Helvetica;fontSize=23;fontColor=#23445D;align=center;strokeWidth=3;" parent="oZi61YfB-YG20l5aSopQ-657" vertex="1">
          <mxGeometry x="9.116809871137286e-14" y="108.8292203947369" width="250.0733805668016" height="218.3327850877194" as="geometry" />
        </mxCell>
        <mxCell id="oZi61YfB-YG20l5aSopQ-660" value="" style="rounded=1;whiteSpace=wrap;html=1;strokeWidth=2;fillWeight=4;hachureGap=8;hachureAngle=45;fillColor=#1ba1e2;sketch=1;rotation=-40;" vertex="1" parent="oZi61YfB-YG20l5aSopQ-657">
          <mxGeometry x="340" y="123" width="120" height="60" as="geometry" />
        </mxCell>
        <mxCell id="oZi61YfB-YG20l5aSopQ-661" value="" style="rounded=1;whiteSpace=wrap;html=1;strokeWidth=2;fillWeight=4;hachureGap=8;hachureAngle=45;fillColor=#1ba1e2;sketch=1;rotation=-75;" vertex="1" parent="oZi61YfB-YG20l5aSopQ-657">
          <mxGeometry x="390" y="23" width="120" height="60" as="geometry" />
        </mxCell>
        <mxCell id="oZi61YfB-YG20l5aSopQ-659" value="" style="endArrow=none;html=1;" edge="1" parent="oZi61YfB-YG20l5aSopQ-657">
          <mxGeometry width="50" height="50" relative="1" as="geometry">
            <mxPoint x="760" y="508" as="sourcePoint" />
            <mxPoint x="370" y="-72" as="targetPoint" />
          </mxGeometry>
        </mxCell>
        <mxCell id="oZi61YfB-YG20l5aSopQ-669" value="" style="ellipse;whiteSpace=wrap;html=1;strokeWidth=2;fillWeight=2;hachureGap=8;fillColor=#990000;fillStyle=dots;sketch=1;rotation=-40;" vertex="1" parent="oZi61YfB-YG20l5aSopQ-657">
          <mxGeometry x="40.12" y="195.3" width="230.48" height="103.86" as="geometry" />
        </mxCell>
        <mxCell id="oZi61YfB-YG20l5aSopQ-670" value="" style="ellipse;whiteSpace=wrap;html=1;strokeWidth=2;fillWeight=2;hachureGap=8;fillColor=#990000;fillStyle=dots;sketch=1;rotation=75;" vertex="1" parent="oZi61YfB-YG20l5aSopQ-657">
          <mxGeometry x="25.33" y="307.31" width="198.01" height="110.27" as="geometry" />
        </mxCell>
        <mxCell id="oZi61YfB-YG20l5aSopQ-658" value="" style="endArrow=none;html=1;" edge="1" parent="1">
          <mxGeometry width="50" height="50" relative="1" as="geometry">
            <mxPoint y="2990" as="sourcePoint" />
            <mxPoint x="880" y="2500" as="targetPoint" />
          </mxGeometry>
        </mxCell>
        <mxCell id="oZi61YfB-YG20l5aSopQ-662" value="" style="endArrow=none;html=1;" edge="1" parent="1">
          <mxGeometry width="50" height="50" relative="1" as="geometry">
            <mxPoint x="1050" y="3070" as="sourcePoint" />
            <mxPoint x="1164" y="3150" as="targetPoint" />
          </mxGeometry>
        </mxCell>
        <mxCell id="oZi61YfB-YG20l5aSopQ-663" value="" style="ellipse;whiteSpace=wrap;html=1;aspect=fixed;" vertex="1" parent="1">
          <mxGeometry x="160" y="3270" width="80" height="80" as="geometry" />
        </mxCell>
        <mxCell id="oZi61YfB-YG20l5aSopQ-664" value="" style="ellipse;whiteSpace=wrap;html=1;aspect=fixed;" vertex="1" parent="1">
          <mxGeometry x="360" y="3410" width="80" height="80" as="geometry" />
        </mxCell>
        <mxCell id="oZi61YfB-YG20l5aSopQ-665" value="" style="ellipse;whiteSpace=wrap;html=1;aspect=fixed;" vertex="1" parent="1">
          <mxGeometry x="660" y="3350" width="80" height="80" as="geometry" />
        </mxCell>
        <mxCell id="oZi61YfB-YG20l5aSopQ-666" value="" style="ellipse;whiteSpace=wrap;html=1;aspect=fixed;" vertex="1" parent="1">
          <mxGeometry x="1020" y="3270" width="80" height="80" as="geometry" />
        </mxCell>
        <mxCell id="oZi61YfB-YG20l5aSopQ-667" value="" style="ellipse;whiteSpace=wrap;html=1;aspect=fixed;" vertex="1" parent="1">
          <mxGeometry x="790" y="3560" width="80" height="80" as="geometry" />
        </mxCell>
        <mxCell id="oZi61YfB-YG20l5aSopQ-668" value="" style="ellipse;whiteSpace=wrap;html=1;aspect=fixed;" vertex="1" parent="1">
          <mxGeometry x="180" y="3560" width="80" height="80" as="geometry" />
        </mxCell>
      </root>
    </mxGraphModel>
  </diagram>
</mxfile>
